<svg width="161" height="54" viewBox="0 0 161 54" fill="none" xmlns="http://www.w3.org/2000/svg">
<path d="M27.5 41C30.55 41 33.4751 39.9991 35.6317 38.2175C37.7884 36.4359 39 34.0196 39 31.5C39 28.9804 37.7884 26.5641 35.6317 24.7825C33.4751 23.0009 30.55 22 27.5 22L27.5 31.5V41Z" fill="url(#paint0_linear_5_58)"/>
<rect x="13" y="13" width="25.5" height="7.63636" rx="1" fill="url(#paint1_linear_5_58)"/>
<ellipse cx="22.5625" cy="25.0909" rx="3.1875" ry="3.18182" fill="url(#paint2_linear_5_58)"/>
<rect x="19.375" y="29.5455" width="6.375" height="11.4545" rx="1" fill="url(#paint3_linear_5_58)"/>
<path d="M58.8 16.805L56 13.655H75.845L78.645 16.805H70.21L70.28 38.015L65.38 37V16.805H58.8ZM96.8961 16.98C94.5628 15.44 92.2528 15.5217 89.9661 17.225C88.1228 18.625 86.7811 20.6433 85.9411 23.28C85.0311 26.22 85.1245 28.7517 86.2211 30.875C86.7578 31.9483 87.5511 32.8 88.6011 33.43C90.9578 34.8533 93.2678 34.69 95.5311 32.94C97.3745 31.5167 98.6928 29.475 99.4861 26.815C100.349 23.875 100.186 21.355 98.9961 19.255C98.4828 18.3217 97.7828 17.5633 96.8961 16.98ZM102.356 18.695C103.243 19.5583 103.908 20.585 104.351 21.775C104.794 22.9417 105.004 24.1433 104.981 25.38C104.981 26.5933 104.783 27.83 104.386 29.09C104.013 30.35 103.488 31.5283 102.811 32.625C102.158 33.6983 101.364 34.6667 100.431 35.53C99.4978 36.37 98.4945 37.0117 97.4211 37.455C96.3478 37.8983 95.1811 38.085 93.9211 38.015C92.6611 37.945 91.4245 37.56 90.2111 36.86C90.0245 36.7433 89.6861 36.5567 89.1961 36.3C88.7295 36.0433 88.3911 35.8683 88.1811 35.775C87.9945 35.6583 87.7028 35.4833 87.3061 35.25C86.9095 34.9933 86.5711 34.7717 86.2911 34.585C86.0345 34.375 85.7078 34.13 85.3111 33.85C84.9378 33.5467 84.5528 33.22 84.1561 32.87C83.7595 32.52 83.3395 32.1233 82.8961 31.68C82.0328 30.8633 81.3911 29.8833 80.9711 28.74C80.5745 27.5967 80.3878 26.4183 80.4111 25.205C80.4578 23.9917 80.6678 22.7667 81.0411 21.53C81.4145 20.27 81.9278 19.0917 82.5811 17.995C83.2578 16.875 84.0511 15.8833 84.9611 15.02C85.8711 14.1333 86.8278 13.445 87.8311 12.955C88.8578 12.4417 89.9545 12.185 91.1211 12.185C92.2878 12.185 93.4311 12.4883 94.5511 13.095C97.5845 14.7283 100.186 16.595 102.356 18.695ZM114.037 16.84L114.072 24.715C115.869 24.715 117.42 24.4933 118.727 24.05C120.034 23.5833 120.99 23.0233 121.597 22.37C122.204 21.6933 122.647 20.9817 122.927 20.235C123.207 19.4883 123.3 18.8117 123.207 18.205C123.137 17.5983 122.974 17.155 122.717 16.875C122.274 16.4083 121.562 16.1167 120.582 16C119.625 15.86 118.599 15.8833 117.502 16.07C116.405 16.2333 115.25 16.49 114.037 16.84ZM114.072 26.465L114.107 35.18C118.26 35.6 121.305 34.8883 123.242 33.045C124.502 31.8317 124.957 30.4667 124.607 28.95C124.374 27.9233 123.79 27.095 122.857 26.465C120.454 27.4917 117.525 27.4917 114.072 26.465ZM114.107 37.035L109.207 35.95V13.585C111.144 13.0483 113.489 12.7567 116.242 12.71C119.019 12.6633 120.687 12.85 121.247 13.27C121.97 13.7367 122.939 14.5533 124.152 15.72C125.389 16.8867 126.357 17.8783 127.057 18.695C127.36 19.185 127.512 19.7917 127.512 20.515C127.512 21.2383 127.255 22.0783 126.742 23.035C126.229 23.9683 125.54 24.7617 124.677 25.415C126.567 26.5117 128.107 27.7367 129.297 29.09C129.694 29.5567 129.845 30.2217 129.752 31.085C129.659 31.9483 129.297 32.8467 128.667 33.78C128.037 34.7133 127.08 35.5417 125.797 36.265C124.537 36.9883 122.939 37.4433 121.002 37.63C119.089 37.84 116.79 37.6417 114.107 37.035ZM138.689 15.125L138.759 38.015L133.509 37V13.69L138.689 15.125Z" fill="white"/>
<defs>
<linearGradient id="paint0_linear_5_58" x1="32.9869" y1="41" x2="32.5526" y2="12.0749" gradientUnits="userSpaceOnUse">
<stop offset="0.313842" stop-color="#FF3400" stop-opacity="0.82"/>
<stop offset="1" stop-color="#177CFF" stop-opacity="0.76"/>
</linearGradient>
<linearGradient id="paint1_linear_5_58" x1="26" y1="12" x2="26" y2="26.5" gradientUnits="userSpaceOnUse">
<stop offset="0.124364" stop-color="#FF3400"/>
<stop offset="1" stop-color="white" stop-opacity="0.76"/>
</linearGradient>
<linearGradient id="paint2_linear_5_58" x1="22.5" y1="22" x2="22.5625" y2="28.2727" gradientUnits="userSpaceOnUse">
<stop offset="0.177016" stop-color="#006FFF"/>
<stop offset="0.588206" stop-color="#2986FF" stop-opacity="0.741206"/>
<stop offset="1" stop-color="#166EDF" stop-opacity="0"/>
</linearGradient>
<linearGradient id="paint3_linear_5_58" x1="22.5625" y1="29.5455" x2="22.5625" y2="41" gradientUnits="userSpaceOnUse">
<stop stop-color="#FF3400"/>
<stop offset="1" stop-color="#FF3400" stop-opacity="0.43"/>
</linearGradient>
</defs>
</svg>
