<svg id="abc" width="42" height="42" viewBox="0 0 42 42" fill="none" xmlns="http://www.w3.org/2000/svg">
<g id="menu_1">
<path id="Vector" d="M6.00001 7C8.99991 7.35593 33.0001 7.31557 35 7C37 7 38 11 35 11C32 11 9 11 6.00001 11C3.00001 11 3.00001 7 6.00001 7Z" fill="white"/>
<path id="Vector_2" d="M6 19C8.9999 19.3559 33 19.3156 35 19C37 19 38 23 35 23C32 23 8.99999 23 6 23C3 23 3 19 6 19Z" fill="white"/>
<path id="Vector_3" d="M6 31C8.9999 31.3559 33 31.3156 35 31C37 31 38 35 35 35C32 35 8.99999 35 6 35C3 35 3 31 6 31Z" fill="white"/>
</g>
</svg>

